<svg width="466" height="80" viewBox="0 0 466 80" fill="none" xmlns="http://www.w3.org/2000/svg">
<path d="M34.9685 15.1351L55.7054 58.9189H14.2317L34.9685 15.1351Z" fill="#488345"/>
<mask id="mask0" mask-type="alpha" maskUnits="userSpaceOnUse" x="14" y="15" width="42" height="44">
<path d="M34.9685 15.1351L55.7054 58.9189H14.2317L34.9685 15.1351Z" fill="#C4C4C4"/>
</mask>
<g mask="url(#mask0)">
<rect x="34.9685" y="15.1351" width="27.0488" height="43.9177" fill="#355172"/>
</g>
<ellipse cx="79.5642" cy="36.9601" rx="20.6509" ry="21.8249" fill="#355172"/>
<mask id="mask1" mask-type="alpha" maskUnits="userSpaceOnUse" x="58" y="15" width="43" height="44">
<ellipse cx="79.5642" cy="36.9601" rx="20.6509" ry="21.8249" fill="#7879F1"/>
</mask>
<g mask="url(#mask1)">
<rect x="79.4375" y="14.8673" width="20.5242" height="21.9588" fill="#488345"/>
</g>
<mask id="mask2" mask-type="alpha" maskUnits="userSpaceOnUse" x="58" y="15" width="43" height="44">
<ellipse cx="79.5642" cy="36.9601" rx="20.6509" ry="21.8249" fill="#C4C4C4"/>
</mask>
<g mask="url(#mask2)">
<rect x="79.4375" y="36.8262" width="20.5242" height="21.9588" fill="#355172"/>
</g>
<mask id="mask3" mask-type="alpha" maskUnits="userSpaceOnUse" x="58" y="15" width="43" height="44">
<ellipse cx="79.5642" cy="36.9601" rx="20.6509" ry="21.8249" fill="#C4C4C4"/>
</mask>
<g mask="url(#mask3)">
<rect x="58.9133" y="36.8262" width="20.5242" height="21.9588" fill="#834377"/>
</g>
<path d="M111.837 53.6487L127.637 15.9987H127.937L143.737 53.6487H138.137L134.387 44.1487H120.487L116.637 53.6487H111.837ZM122.187 39.9487H132.737L127.587 26.7987L122.187 39.9487ZM157.645 17.4986C160.045 17.4986 162.212 17.932 164.145 18.7986C166.079 19.632 167.612 20.8986 168.745 22.5986C169.879 24.2653 170.445 26.2986 170.445 28.6987C170.445 30.7653 169.979 32.7653 169.045 34.6987C168.145 36.632 166.612 38.0987 164.445 39.0987L173.545 53.6487H167.895L159.345 40.2987C158.979 40.332 158.595 40.3487 158.195 40.3487H152.845V53.6487H147.995V17.4986H157.645ZM158.095 35.6487C160.029 35.6487 161.512 35.2987 162.545 34.5987C163.612 33.8653 164.362 32.982 164.795 31.9487C165.229 30.882 165.445 29.8653 165.445 28.8986C165.445 27.932 165.212 26.932 164.745 25.8987C164.278 24.8653 163.529 23.982 162.495 23.2486C161.495 22.5153 160.145 22.1486 158.445 22.1486H152.845V35.6487H158.095ZM178.503 17.4986H183.353V53.6487H178.503V17.4986ZM187.637 53.6487L203.437 15.9987H203.737L219.537 53.6487H213.937L210.187 44.1487H196.287L192.437 53.6487H187.637ZM197.987 39.9487H208.537L203.387 26.7987L197.987 39.9487ZM234.866 35.5986C234.866 33.0986 235.333 30.732 236.266 28.4987C237.233 26.2653 238.566 24.2986 240.266 22.5986C241.966 20.8986 243.916 19.5653 246.116 18.5986C248.35 17.5987 250.733 17.0987 253.266 17.0987C255.8 17.0987 258.183 17.5987 260.416 18.5986C262.683 19.5653 264.666 20.8986 266.366 22.5986C268.066 24.2986 269.4 26.2653 270.366 28.4987C271.333 30.732 271.816 33.0986 271.816 35.5986C271.816 38.1653 271.333 40.5653 270.366 42.7987C269.4 44.9987 268.066 46.9487 266.366 48.6487C264.666 50.3487 262.683 51.682 260.416 52.6487C258.183 53.582 255.8 54.0487 253.266 54.0487C250.733 54.0487 248.35 53.582 246.116 52.6487C243.916 51.7153 241.966 50.4153 240.266 48.7487C238.566 47.082 237.233 45.132 236.266 42.8987C235.333 40.632 234.866 38.1986 234.866 35.5986ZM239.866 35.6487C239.866 37.5487 240.216 39.332 240.916 40.9987C241.616 42.632 242.583 44.082 243.816 45.3487C245.05 46.6153 246.483 47.5987 248.116 48.2987C249.75 48.9987 251.516 49.3487 253.416 49.3487C255.916 49.3487 258.166 48.7487 260.166 47.5487C262.2 46.3153 263.816 44.6653 265.016 42.5987C266.216 40.4987 266.816 38.1653 266.816 35.5986C266.816 33.6987 266.466 31.9153 265.766 30.2486C265.066 28.5486 264.1 27.0653 262.866 25.7986C261.633 24.532 260.2 23.5486 258.566 22.8486C256.933 22.1153 255.183 21.7487 253.316 21.7487C250.783 21.7487 248.5 22.382 246.466 23.6486C244.433 24.9153 242.816 26.5986 241.616 28.6987C240.45 30.7987 239.866 33.1153 239.866 35.6487ZM296.187 23.9486C294.954 23.3153 293.604 22.7653 292.137 22.2986C290.671 21.832 289.254 21.5986 287.887 21.5986C285.921 21.5986 284.354 22.0486 283.187 22.9487C282.054 23.8487 281.487 25.0653 281.487 26.5987C281.487 27.6987 281.854 28.632 282.587 29.3987C283.354 30.1653 284.321 30.8487 285.487 31.4486C286.687 32.0153 287.954 32.5487 289.287 33.0486C290.787 33.6153 292.237 34.2987 293.637 35.0987C295.037 35.8987 296.187 36.982 297.087 38.3486C298.021 39.682 298.487 41.482 298.487 43.7487C298.487 45.682 298.004 47.432 297.037 48.9987C296.071 50.532 294.704 51.7653 292.937 52.6987C291.171 53.5987 289.071 54.0487 286.637 54.0487C284.237 54.0487 282.004 53.6653 279.937 52.8987C277.904 52.132 276.171 51.2487 274.737 50.2487L276.887 46.3987C278.054 47.2987 279.487 48.082 281.187 48.7487C282.921 49.4153 284.571 49.7487 286.137 49.7487C287.304 49.7487 288.437 49.5487 289.537 49.1487C290.671 48.7487 291.604 48.1153 292.337 47.2487C293.071 46.3487 293.437 45.1987 293.437 43.7987C293.437 42.5987 293.104 41.582 292.437 40.7487C291.771 39.9153 290.904 39.2153 289.837 38.6487C288.804 38.0487 287.671 37.5153 286.437 37.0487C285.304 36.6487 284.154 36.182 282.987 35.6487C281.821 35.1153 280.737 34.482 279.737 33.7486C278.771 32.982 277.987 32.0486 277.387 30.9486C276.787 29.8487 276.487 28.5153 276.487 26.9486C276.487 25.0486 276.937 23.3987 277.837 21.9987C278.771 20.5653 280.037 19.4486 281.637 18.6486C283.237 17.8153 285.087 17.3653 287.187 17.2986C289.487 17.2986 291.521 17.582 293.287 18.1486C295.087 18.7153 296.671 19.3987 298.037 20.1986L296.187 23.9486ZM304.089 17.4986H308.939V48.9487H327.339V53.6487H304.089V17.4986ZM329.808 35.5986C329.808 33.0986 330.274 30.732 331.208 28.4987C332.174 26.2653 333.508 24.2986 335.208 22.5986C336.908 20.8986 338.858 19.5653 341.058 18.5986C343.291 17.5987 345.674 17.0987 348.208 17.0987C350.741 17.0987 353.124 17.5987 355.358 18.5986C357.624 19.5653 359.608 20.8986 361.308 22.5986C363.008 24.2986 364.341 26.2653 365.308 28.4987C366.274 30.732 366.758 33.0986 366.758 35.5986C366.758 38.1653 366.274 40.5653 365.308 42.7987C364.341 44.9987 363.008 46.9487 361.308 48.6487C359.608 50.3487 357.624 51.682 355.358 52.6487C353.124 53.582 350.741 54.0487 348.208 54.0487C345.674 54.0487 343.291 53.582 341.058 52.6487C338.858 51.7153 336.908 50.4153 335.208 48.7487C333.508 47.082 332.174 45.132 331.208 42.8987C330.274 40.632 329.808 38.1986 329.808 35.5986ZM334.808 35.6487C334.808 37.5487 335.158 39.332 335.858 40.9987C336.558 42.632 337.524 44.082 338.758 45.3487C339.991 46.6153 341.424 47.5987 343.058 48.2987C344.691 48.9987 346.458 49.3487 348.358 49.3487C350.858 49.3487 353.108 48.7487 355.108 47.5487C357.141 46.3153 358.758 44.6653 359.958 42.5987C361.158 40.4987 361.758 38.1653 361.758 35.5986C361.758 33.6987 361.408 31.9153 360.708 30.2486C360.008 28.5486 359.041 27.0653 357.808 25.7986C356.574 24.532 355.141 23.5486 353.508 22.8486C351.874 22.1153 350.124 21.7487 348.258 21.7487C345.724 21.7487 343.441 22.382 341.408 23.6486C339.374 24.9153 337.758 26.5986 336.558 28.6987C335.391 30.7987 334.808 33.1153 334.808 35.6487Z" fill="#834377"/>
</svg>
